<?xml version="1.0" standalone="no"?><!DOCTYPE svg PUBLIC "-//W3C//DTD SVG 1.1//EN" "http://www.w3.org/Graphics/SVG/1.1/DTD/svg11.dtd"><svg t="1741440231918" class="icon" viewBox="0 0 1024 1024" version="1.1" xmlns="http://www.w3.org/2000/svg" p-id="3159" data-spm-anchor-id="a313x.search_index.0.i11.3d843a81YiHcnL" width="64" height="64" xmlns:xlink="http://www.w3.org/1999/xlink"><path d="M560.704 64a463.104 463.104 0 0 0-387.52 209.28l-21.12-78.912a71.872 71.872 0 0 0-86.912-51.136L64 143.552l64.64 241.024c5.12 19.2 24.832 30.528 43.968 25.408l241.088-64.576c-10.24-38.336-49.664-61.12-88-50.816l-97.536 26.112a391.296 391.296 0 0 1 332.544-184.832 391.36 391.36 0 1 1 0 782.592 391.488 391.488 0 0 1-351.744-219.52l-0.384-0.768-0.256-0.512-0.256-0.64-0.128-0.384a74.112 74.112 0 0 0-91.648-40.64l-1.088 0.384 14.464 40.768 0.256 0.64a463.36 463.36 0 0 0 430.784 292.48A463.232 463.232 0 1 0 560.704 64z" fill="#1afa29" p-id="3160" data-spm-anchor-id="a313x.search_index.0.i12.3d843a81YiHcnL" class="selected"></path><path d="M702.528 621.696L555.52 390.08A14.08 14.08 0 0 0 544.256 384c-4.672 0-9.344 2.432-11.328 6.08L385.92 621.76a10.24 10.24 0 0 0 0 12.16 14.08 14.08 0 0 0 11.392 6.08h293.76c4.672 0 9.344-2.432 11.392-6.08a13.12 13.12 0 0 0 0-12.16z m-144.256-24.32h-26.688v-24.448h26.688v24.384z m0-36.608h-26.688V487.616h26.688v73.152z" fill="#f4ea2a" p-id="3161" data-spm-anchor-id="a313x.search_index.0.i9.3d843a81YiHcnL" class=""></path></svg>