<?xml version="1.0" standalone="no"?><!DOCTYPE svg PUBLIC "-//W3C//DTD SVG 1.1//EN" "http://www.w3.org/Graphics/SVG/1.1/DTD/svg11.dtd"><svg t="1697676994697" class="icon" viewBox="0 0 1024 1024" version="1.1" xmlns="http://www.w3.org/2000/svg" p-id="1963" data-darkreader-inline-fill="" xmlns:xlink="http://www.w3.org/1999/xlink" width="200" height="200"><path d="M41.63216001 831.99999969L451.23216031 121.59999969c27.19999969-46.39999969 94.39999969-46.39999969 121.59999938 0L982.43216001 831.99999969c27.19999969 46.39999969-6.40000031 105.6-60.7999997 105.6H102.43215969C48.03216031 937.59999969 14.43216031 878.40000031 41.63216001 831.99999969z" fill="#E8BC0F" p-id="1964" data-darkreader-inline-fill="" style="--darkreader-inline-fill: #ba960c;"></path><path d="M73.63215969 831.99999969L470.43216031 144.00000031c17.59999969-31.99999969 64.00000031-31.99999969 81.6 0l396.79999968 687.99999938c17.59999969 31.99999969-4.80000001 70.39999969-41.59999968 70.40000062H115.23216031c-36.79999969 0-59.20000031-38.4-41.60000062-70.40000062z" fill="#E8BC0F" p-id="1965" data-darkreader-inline-fill="" style="--darkreader-inline-fill: #ba960c;"></path><path d="M139.23216031 835.20000031L512.03215999 188.79999969l372.7999997 646.40000062z" fill="#E8BC0F" p-id="1966" data-darkreader-inline-fill="" style="--darkreader-inline-fill: #ba960c;"></path><path d="M484.83216031 625.59999969c4.80000001 14.40000001 14.40000001 22.39999969 27.1999997 22.40000062s22.39999969-9.6 27.19999968-22.40000062l19.2-252.79999968c0-27.19999969-22.39999969-46.39999969-46.39999968-46.3999997-27.19999969 0-46.39999969 22.39999969-46.3999997 51.19999969l19.2 247.99999969z m27.1999997 68.80000031c-27.19999969 0-46.39999969 19.2-46.3999997 46.39999969s19.2 46.39999969 46.3999997 46.40000062 46.39999969-19.2 46.39999968-46.40000062-19.2-46.39999969-46.39999968-46.39999969z" fill="#FFFFFF" p-id="1967" data-darkreader-inline-fill="" style="--darkreader-inline-fill: #181a1b;"></path></svg>