<?xml version="1.0" encoding="UTF-8" standalone="no"?>
<svg
   width="64"
   height="64"
   viewBox="0 0 64 64"
   version="1.1"
   id="svg38"
   sodipodi:docname="bed_up.svg"
   inkscape:version="1.3.2 (091e20e, 2023-11-25, custom)"
   xmlns:inkscape="http://www.inkscape.org/namespaces/inkscape"
   xmlns:sodipodi="http://sodipodi.sourceforge.net/DTD/sodipodi-0.dtd"
   xmlns:xlink="http://www.w3.org/1999/xlink"
   xmlns="http://www.w3.org/2000/svg"
   xmlns:svg="http://www.w3.org/2000/svg"
   xmlns:rdf="http://www.w3.org/1999/02/22-rdf-syntax-ns#"
   xmlns:cc="http://creativecommons.org/ns#"
   xmlns:dc="http://purl.org/dc/elements/1.1/">
  <sodipodi:namedview
     pagecolor="#ffffff"
     bordercolor="#666666"
     borderopacity="1"
     objecttolerance="10"
     gridtolerance="10"
     guidetolerance="10"
     inkscape:pageopacity="0"
     inkscape:pageshadow="2"
     inkscape:window-width="1920"
     inkscape:window-height="1009"
     id="namedview26"
     showgrid="false"
     inkscape:zoom="11.484375"
     inkscape:cx="25.208163"
     inkscape:cy="33.044898"
     inkscape:window-x="-8"
     inkscape:window-y="57"
     inkscape:window-maximized="1"
     inkscape:current-layer="svg38"
     inkscape:document-rotation="0"
     inkscape:showpageshadow="2"
     inkscape:pagecheckerboard="0"
     inkscape:deskcolor="#d1d1d1" />
  <metadata
     id="metadata44">
    <rdf:RDF>
      <cc:Work
         rdf:about="">
        <dc:format>image/svg+xml</dc:format>
        <dc:type
           rdf:resource="http://purl.org/dc/dcmitype/StillImage" />
        <dc:title>bed</dc:title>
      </cc:Work>
    </rdf:RDF>
  </metadata>
  <defs
     id="defs42">
    <linearGradient
       id="linearGradient955">
      <stop
         style="stop-color:#dc322f;stop-opacity:1"
         offset="0"
         id="stop959" />
      <stop
         style="stop-color:#cb4b16;stop-opacity:0.49803922"
         offset="0.5"
         id="stop964" />
      <stop
         style="stop-color:#b58900;stop-opacity:0.24705882"
         offset="0.75"
         id="stop966" />
      <stop
         style="stop-color:#ffffff;stop-opacity:0;"
         offset="1"
         id="stop961" />
    </linearGradient>
    <linearGradient
       xlink:href="#linearGradient955"
       id="linearGradient945"
       x1="51"
       y1="40"
       x2="50.862003"
       y2="5.8426123"
       gradientUnits="userSpaceOnUse"
       gradientTransform="matrix(1.0303936,0,0,0.26206465,1.0881909,33.248326)" />
    <linearGradient
       xlink:href="#linearGradient955"
       id="linearGradient856"
       gradientUnits="userSpaceOnUse"
       x1="51"
       y1="40"
       x2="50.862003"
       y2="5.8426123"
       gradientTransform="matrix(1.0303936,0,0,0.26206465,1.0881914,33.248326)" />
    <linearGradient
       xlink:href="#linearGradient955"
       id="linearGradient858"
       gradientUnits="userSpaceOnUse"
       x1="51"
       y1="40"
       x2="50.862003"
       y2="5.8426123"
       gradientTransform="matrix(1.0303936,0,0,0.26206465,1.0881909,33.248326)" />
    <linearGradient
       xlink:href="#linearGradient955"
       id="linearGradient860"
       gradientUnits="userSpaceOnUse"
       x1="51"
       y1="40"
       x2="50.862003"
       y2="5.8426123"
       gradientTransform="matrix(1.0303936,0,0,0.26206465,1.0881909,33.248326)" />
    <linearGradient
       xlink:href="#linearGradient955"
       id="linearGradient862"
       gradientUnits="userSpaceOnUse"
       x1="51"
       y1="40"
       x2="50.862003"
       y2="5.8426123"
       gradientTransform="matrix(1.0303936,0,0,0.26206465,1.0881909,33.248326)" />
  </defs>
  <!-- Generator: Sketch 52.5 (67469) - http://www.bohemiancoding.com/sketch -->
  <title
     id="title2">bed</title>
  <desc
     id="desc4">Created with Sketch.</desc>
  <path
     d="m 32,43.220532 c 0,0 2.931283,-2.055509 2.931283,-2.813688 0,-0.808725 -5.862566,-1.971266 -5.862566,-2.813688 C 29.068717,36.834977 32,34.779468 32,34.779468"
     id="path25"
     stroke-width="3.00001"
     stroke-linecap="round"
     stroke-linejoin="round"
     style="font-variation-settings:normal;vector-effect:none;fill:none;fill-opacity:1;fill-rule:evenodd;stroke:url(#linearGradient856);stroke-width:1.55894;stroke-linecap:round;stroke-linejoin:round;stroke-miterlimit:4;stroke-dasharray:none;stroke-dashoffset:0;stroke-opacity:1;stop-color:#000000" />
  <path
     d="m 42.748038,43.220532 c 0,0 2.931282,-2.055509 2.931282,-2.813688 0,-0.808725 -5.862565,-1.971266 -5.862565,-2.813688 0,-0.758179 2.931283,-2.813688 2.931283,-2.813688"
     id="path27"
     stroke-width="3.00001"
     stroke-linecap="round"
     stroke-linejoin="round"
     style="font-variation-settings:normal;vector-effect:none;fill:none;fill-opacity:1;fill-rule:evenodd;stroke:url(#linearGradient858);stroke-width:1.55894;stroke-linecap:round;stroke-linejoin:round;stroke-miterlimit:4;stroke-dasharray:none;stroke-dashoffset:0;stroke-opacity:1;stop-color:#000000" />
  <path
     d="m 21.251962,43.220532 c 0,0 2.931282,-2.055509 2.931282,-2.813688 0,-0.808725 -5.862566,-1.971266 -5.862566,-2.813688 0,-0.758179 2.931284,-2.813688 2.931284,-2.813688"
     id="path29"
     stroke-width="3.00001"
     stroke-linecap="round"
     stroke-linejoin="round"
     style="font-variation-settings:normal;vector-effect:none;fill:none;fill-opacity:1;fill-rule:evenodd;stroke:url(#linearGradient860);stroke-width:1.55894;stroke-linecap:round;stroke-linejoin:round;stroke-miterlimit:4;stroke-dasharray:none;stroke-dashoffset:0;stroke-opacity:1;stop-color:#000000" />
  <path
     d="m 53.496075,43.220532 c 0,0 2.931284,-2.055509 2.931284,-2.813688 0,-0.808725 -5.862567,-1.971266 -5.862567,-2.813688 0,-0.758179 2.931283,-2.813688 2.931283,-2.813688"
     id="path31"
     stroke-width="1.55894"
     stroke-linecap="round"
     stroke-linejoin="round"
     style="fill:none;fill-rule:evenodd;stroke:url(#linearGradient862)" />
  <path
     d="m 10.503925,43.220532 c 0,0 2.931282,-2.055509 2.931282,-2.813688 0,-0.808725 -5.8625654,-1.971266 -5.8625654,-2.813688 0,-0.758179 2.9312834,-2.813688 2.9312834,-2.813688"
     id="path33"
     stroke-width="3.00001"
     stroke-linecap="round"
     stroke-linejoin="round"
     style="font-variation-settings:normal;vector-effect:none;fill:none;fill-opacity:1;fill-rule:evenodd;stroke:url(#linearGradient945);stroke-width:1.55894;stroke-linecap:round;stroke-linejoin:round;stroke-miterlimit:4;stroke-dasharray:none;stroke-dashoffset:0;stroke-opacity:1;stop-color:#000000" />
  <g
     id="g859">
    <rect
       style="opacity:0.995;fill:#93a1a1;fill-opacity:1;stroke:none;stroke-width:2;stroke-linecap:round;stroke-linejoin:round;paint-order:stroke fill markers;stop-color:#000000"
       id="rect863"
       width="6"
       height="4"
       x="9"
       y="50"
       rx="1.9999998"
       ry="2" />
    <rect
       style="opacity:0.995;fill:#93a1a1;fill-opacity:1;stroke:none;stroke-width:2;stroke-linecap:round;stroke-linejoin:round;paint-order:stroke fill markers;stop-color:#000000"
       id="rect912"
       width="6"
       height="4"
       x="49"
       y="50"
       rx="1.9999998"
       ry="2" />
    <rect
       style="opacity:0.995;fill:#839496;stroke:none;stroke-width:2.00001;stroke-linecap:round;stroke-linejoin:round;paint-order:stroke fill markers;stop-color:#000000"
       id="rect857"
       width="55"
       height="7"
       x="4.5"
       y="44"
       ry="2"
       rx="2" />
    <rect
       style="opacity:0.995;fill:#586e75;stroke:none;stroke-width:2.00001;stroke-linecap:round;stroke-linejoin:round;paint-order:stroke fill markers;stop-color:#000000"
       id="rect854"
       width="55"
       x="4.5"
       y="44"
       height="2" />
  </g>
  <path
     style="color:#000000;display:inline;opacity:0.998;fill:#eee8d5;stroke:none;stroke-width:0.488189;stroke-linecap:round;stroke-linejoin:round;-inkscape-stroke:none"
     d="m 32.697951,30.129903 h -3.875412 c -0.287314,0 -0.451353,-0.24683 -0.451353,-0.524967 V 15.73493 c -1.51e-4,-1.000029 -0.88384,-1.513654 -1.418773,-0.82463 l -1.336858,1.720293 c -0.179164,0.230613 -0.491722,0.230613 -0.670886,0 L 23.118777,14.279895 C 23.028757,14.164024 23,14.048859 23,13.930287 23,13.811713 23.02876,13.69544 23.118777,13.579569 L 28.59891,6.526365 30.425621,4.173447 c 0.179669,-0.2312626 0.489578,-0.2312632 0.669248,0 l 1.826711,2.352918 5.480132,7.053204 c 0.179668,0.231262 0.179668,0.469064 0,0.700326 l -1.825891,2.350698 c -0.179165,0.230613 -0.491721,0.230615 -0.670887,0 L 34.568077,14.9103 c -0.534934,-0.689023 -1.418623,-0.175399 -1.418773,0.82463 v 13.870006 c 0,0.278138 -0.164041,0.524967 -0.451353,0.524967 z"
     id="rect852-3"
     sodipodi:nodetypes="ssscccccscccccccccccss" />
</svg>
