<?xml version="1.0" standalone="no"?><!DOCTYPE svg PUBLIC "-//W3C//DTD SVG 1.1//EN" "http://www.w3.org/Graphics/SVG/1.1/DTD/svg11.dtd"><svg t="1692274301497" class="icon" viewBox="0 0 1024 1024" version="1.1" xmlns="http://www.w3.org/2000/svg" p-id="1456" data-darkreader-inline-fill="" xmlns:xlink="http://www.w3.org/1999/xlink" width="64" height="64"><path d="M411.924747 954.636213H132.745327c-36.721343 0-66.596767-29.875424-66.596768-66.596768V671.450549c0-36.722366 29.875424-66.596767 66.596768-66.596768h279.17942c36.722366 0 66.597791 29.874401 66.597791 66.596768V888.038422c-0.001023 36.721343-29.875424 66.597791-66.597791 66.597791zM132.745327 645.786029c-14.151301 0-25.664519 11.513218-25.66452 25.66452V888.038422c0 14.151301 11.513218 25.664519 25.66452 25.664519h279.17942c14.152325 0 25.665543-11.513218 25.665543-25.664519V671.450549c0-14.151301-11.513218-25.664519-25.665543-25.66452H132.745327zM599.684038 954.810175v-40.932248c60.488653 0 109.048625-18.727527 144.329153-55.662741 73.499991-76.946486 68.339458-208.966289 68.280106-210.290447l40.885176-1.942235c0.293689 6.104021 6.202259 150.517085-79.397305 240.328577-43.319621 45.452191-101.894691 68.499094-174.09713 68.499094z" fill="#1296db" p-id="1457" data-darkreader-inline-fill="" style="--darkreader-inline-fill: #0e78af;"></path><path d="M830.611501 577.439408l-97.29186 97.29186h184.862312z" fill="#1296db" p-id="1458" data-darkreader-inline-fill="" style="--darkreader-inline-fill: #0e78af;"></path><path d="M888.258433 415.869592H609.079012c-36.721343 0-66.596767-29.875424-66.596767-66.59779V132.684952c0-36.722366 29.875424-66.597791 66.596767-66.597791h279.179421c36.722366 0 66.596767 29.875424 66.596767 66.597791v216.58685c0 36.722366-29.874401 66.597791-66.596767 66.59779zM609.079012 107.020432c-14.151301 0-25.664519 11.513218-25.664519 25.665543v216.58685c0 14.152325 11.513218 25.665543 25.664519 25.665543h279.179421c14.151301 0 25.664519-11.513218 25.664519-25.665543V132.684952c0-14.152325-11.513218-25.665543-25.664519-25.665543H609.079012zM167.825286 374.741893c-0.293689-6.104021-6.201236-150.517085 79.397305-240.328577C290.542212 88.961124 349.117282 65.914222 421.319721 65.914222v40.932248c-60.567447 0-109.173468 18.776645-144.467299 55.807027-73.634044 77.258595-68.205405 208.803583-68.14196 210.122625l-40.885176 1.965771z" fill="#1296db" p-id="1459" data-darkreader-inline-fill="" style="--darkreader-inline-fill: #0e78af;"></path><path d="M190.392258 443.283965l97.29186-97.29186H102.821807z" fill="#1296db" p-id="1460" data-darkreader-inline-fill="" style="--darkreader-inline-fill: #0e78af;"></path></svg>