<?xml version="1.0" standalone="no"?><!DOCTYPE svg PUBLIC "-//W3C//DTD SVG 1.1//EN" "http://www.w3.org/Graphics/SVG/1.1/DTD/svg11.dtd"><svg t="1697677198226" class="icon" viewBox="0 0 1024 1024" version="1.1" xmlns="http://www.w3.org/2000/svg" p-id="7820" data-darkreader-inline-fill="" xmlns:xlink="http://www.w3.org/1999/xlink" width="200" height="200"><path d="M369.579313 323.898925c-27.870768 0-50.451042 9.676383-67.738777 29.081338-17.336854 19.403932-26.006304 48.536436-26.006304 87.49575 0 39.564088 8.66945 69.149916 25.956162 88.756463 17.287735 19.605523 39.262212 29.433356 65.722864 29.433357 9.827833 0 19.152199-1.612731 27.921933-4.838192-13.860682-9.072633-27.921933-16.178471-42.23594-21.218254l19.152199-39.010479c22.478967 7.711636 43.949978 19.253506 64.412008 34.625612 8.769734-10.332323 15.372106-22.781866 19.756973-37.397749 4.38589-14.615882 6.602372-31.399127 6.602372-50.350758 0-39.110763-8.618285-68.293409-25.854855-87.596034-17.287735-19.354813-39.815821-28.981055-67.688635-28.981054zM761.822812 552.588417h-1.035586c-0.695848 7.609305-2.428306 14.505365-5.182022 20.721951l-25.901927 77.707826h66.311265l-29.010731-78.743412c-2.072195-6.897084-3.804652-13.469779-5.180999-19.686365z" p-id="7821" fill="#1296db" data-darkreader-inline-fill="" style="--darkreader-inline-fill: #0e78af;"></path><path d="M960.452685 626.529453c0-114.907053-91.368964-208.04122-204.072839-208.04122-30.083156 0-58.644655 6.640234-84.356246 18.554588-0.457418-170.358993-136.050606-308.295552-303.249629-308.295552-167.481456 0-303.260885 138.40114-303.260885 309.158199 0 127.867226 76.105329 237.589187 184.66686 284.663318l-27.568892 110.578468s217.882356-42.23594 334.862627-153.21759c0.452301-0.367367 0.898463-0.740874 1.348717-1.110288 11.255345 44.311205 36.46347 82.891895 70.574359 110.575398 78.718853 74.682933 225.338165 103.104239 225.338165 103.10424l-18.551518-74.411757c73.055876-31.677467 124.269281-105.513102 124.269281-191.557804zM521.235338 643.641179c-10.332323-3.075035-20.411889-7.308453-30.240744-12.701276-2.167363-1.058099-17.337877-11.088546-45.461402-29.987988-22.176069 9.677407-46.722114 14.56574-73.63609 14.56574-52.013631 0-92.787266-15.321964-122.221646-45.964868-29.484521-30.643927-44.25083-73.686233-44.25083-129.076774 0-55.239092 14.766308-98.230232 44.301995-128.924301 29.584806-30.694069 69.653383-46.066175 120.306017-46.066175 50.199309 0 89.964988 15.372106 119.349225 46.066175 29.383214 30.694069 44.100404 73.685209 44.100404 128.924301 0 29.232788-4.082992 54.936193-12.247952 77.113285-6.148024 16.935718-16.028045 33.31578-29.534663 49.192376 16.783245 11.995195 35.028794 21.571295 54.734602 28.626991l-25.198916 48.232514z m300.682154 96.482425l-16.57756-49.732681h-87.033216l-16.57756 49.732681h-55.949267l84.959997-227.942479h62.165852l85.995583 227.942479h-56.983829z" p-id="7822" fill="#1296db" data-darkreader-inline-fill="" style="--darkreader-inline-fill: #0e78af;"></path></svg>