<svg id="组_1" data-name="组 1" xmlns="http://www.w3.org/2000/svg" width="63.999" height="63.999" viewBox="0 0 90 90">
  <metadata><?xpacket begin="﻿" id="W5M0MpCehiHzreSzNTczkc9d"?>
<x:xmpmeta xmlns:x="adobe:ns:meta/" x:xmptk="Adobe XMP Core 5.6-c138 79.159824, 2016/09/14-01:09:01        ">
   <rdf:RDF xmlns:rdf="http://www.w3.org/1999/02/22-rdf-syntax-ns#">
      <rdf:Description rdf:about=""/>
   </rdf:RDF>
</x:xmpmeta>
                                                                                                    
                                                                                                    
                                                                                                    
                                                                                                    
                                                                                                    
                                                                                                    
                                                                                                    
                                                                                                    
                                                                                                    
                                                                                                    
                                                                                                    
                                                                                                    
                                                                                                    
                                                                                                    
                                                                                                    
                                                                                                    
                                                                                                    
                                                                                                    
                                                                                                    
                                                                                                    
                           
<?xpacket end="w"?></metadata>
<defs>
    <style>
      .cls-1 {
        fill: #00a0e9;
      }

      .cls-1, .cls-3, .cls-4, .cls-5 {
        fill-rule: evenodd;
      }

      .cls-2 {
        font-size: 18.667px;
        text-anchor: middle;
        font-family: Arial;
      }

      .cls-2, .cls-4, .cls-5 {
        fill: #fff;
      }

      .cls-3 {
        fill: #e2e8ff;
        opacity: 0.8;
      }

      .cls-5 {
        opacity: 0.24;
      }
    </style>
  </defs>
  <path id="形状_1" data-name="形状 1" class="cls-1" d="M6.266,69.662L66,70l-3,5L3.756,74.7V69.662H6.266Z"/>
  <path id="形状_2" data-name="形状 2" class="cls-1" d="M10.5,69.074l16.1-21.8-5.047-.141L0.383,70.015c1.8,4.246.25,3.294,1.36,3.14l10.408-1.446Z"/>
  <path id="圆角矩形_2" data-name="圆角矩形 2" class="cls-1" d="M2.1,68.4L4.2,67.35a2.627,2.627,0,0,1,2.1,2.11l2.1,4.22c0,0.874-5.068,1-5.938,1H1.575A1.579,1.579,0,0,1,0,73.1V71.244C0,70.371,1.23,68.4,2.1,68.4Z"/>
  <path id="形状_4" data-name="形状 4" class="cls-1" d="M11.675,48.661L33.9,50.176l-8.278-4Z"/>
  <path id="形状_3" data-name="形状 3" class="cls-1" d="M63.31,65.337L52.9,80.012,74.16,72.672Z"/>
  <text id="x" class="cls-2" transform="translate(80.91 80.438) scale(1.4 1.407)"><tspan x="0">x</tspan></text>
  <text id="y" class="cls-2" transform="translate(11.296 36.065) scale(1.4 1.407)"><tspan x="0">y</tspan></text>
  <path id="矩形_7_拷贝_5" data-name="矩形 7 拷贝 5" class="cls-3" d="M31.713,31.3H55.992v6.653H31.713V31.3Z"/>
  <path id="矩形_8_拷贝_5" data-name="矩形 8 拷贝 5" class="cls-3" d="M33.9,37.954H53.768v4.388H33.9V37.954Z"/>
  <path id="矩形_9_拷贝_5" data-name="矩形 9 拷贝 5" class="cls-4" d="M29.49,42.342h28.69v10.97H29.49V42.342Z"/>
  <path id="形状_13_拷贝_5" data-name="形状 13 拷贝 5" class="cls-3" d="M33.9,53.356l9.469,6.62,10.386-6.62H33.9Z"/>
  <path id="矩形_7_拷贝_6" data-name="矩形 7 拷贝 6" class="cls-3" d="M63.226,25.639H87.5v6.653H63.226V25.639Z"/>
  <path id="矩形_8_拷贝_6" data-name="矩形 8 拷贝 6" class="cls-3" d="M65.449,32.292H85.281V36.68H65.449V32.292Z"/>
  <path id="矩形_9_拷贝_6" data-name="矩形 9 拷贝 6" class="cls-4" d="M61,36.68H89.728v10.97H61V36.68Z"/>
  <path id="椭圆_2" data-name="椭圆 2" class="cls-5" d="M43.041,56.956c5.613,0,10.163,1.267,10.163,2.831s-4.55,2.831-10.163,2.831S32.877,61.35,32.877,59.787,37.428,56.956,43.041,56.956Z"/>
  <path id="椭圆_2_拷贝_2" data-name="椭圆 2 拷贝 2" class="cls-5" d="M74.659,52.427c4.366,0,7.9,1.014,7.9,2.265s-3.539,2.265-7.9,2.265-7.9-1.014-7.9-2.265S70.294,52.427,74.659,52.427Z"/>
  <path id="形状_13_拷贝_6" data-name="形状 13 拷贝 6" class="cls-3" d="M65.449,47.694l9.469,6.62L85.3,47.694H65.449Z"/>
</svg>
