<svg id="组_2" data-name="组 2" xmlns="http://www.w3.org/2000/svg" width="63.999" height="63.999" viewBox="0 0 90 90">
  <metadata><?xpacket begin="﻿" id="W5M0MpCehiHzreSzNTczkc9d"?>
<x:xmpmeta xmlns:x="adobe:ns:meta/" x:xmptk="Adobe XMP Core 5.6-c138 79.159824, 2016/09/14-01:09:01        ">
   <rdf:RDF xmlns:rdf="http://www.w3.org/1999/02/22-rdf-syntax-ns#">
      <rdf:Description rdf:about=""/>
   </rdf:RDF>
</x:xmpmeta>
                                                                                                    
                                                                                                    
                                                                                                    
                                                                                                    
                                                                                                    
                                                                                                    
                                                                                                    
                                                                                                    
                                                                                                    
                                                                                                    
                                                                                                    
                                                                                                    
                                                                                                    
                                                                                                    
                                                                                                    
                                                                                                    
                                                                                                    
                                                                                                    
                                                                                                    
                                                                                                    
                           
<?xpacket end="w"?></metadata>
<defs>
    <style>
      .cls-1 {
        fill: #bcc1d5;
      }

      .cls-1, .cls-2, .cls-3, .cls-4, .cls-5, .cls-6 {
        fill-rule: evenodd;
      }

      .cls-2 {
        fill: #fff;
      }

      .cls-3 {
        fill: #242632;
      }

      .cls-3, .cls-4 {
        stroke: #bcc1d5;
      }

      .cls-3, .cls-4, .cls-5 {
        stroke-width: 1px;
      }

      .cls-4 {
        fill: #ff233d;
      }

      .cls-5 {
        fill: none;
        stroke: #fff;
        opacity: 0.4;
      }

      .cls-6 {
        fill: #fb9b00;
      }
    </style>
  </defs>
  <path id="形状_16" data-name="形状 16" class="cls-1" d="M17,13l5,1,4,26L15,47l-3.867-.76L11,30H9L4,29Z"/>
  <path id="形状_15" data-name="形状 15" class="cls-2" d="M21.134,13.989L8.127,30.2l5.98-1.178L14,47l13.831-6.415L27.7,23.944l6.3-1.576Z"/>
  <path id="形状_23" data-name="形状 23" class="cls-3" d="M42.773,75.127s-0.328,4.01,1.663,4.524,1.982,0.4,2.993,0a2.355,2.355,0,0,0,1.663-2.111c0.02-.95,0-3.016,0-3.016L48.76,71.809l-4.324.9-0.665.6Z"/>
  <path id="形状_23_拷贝" data-name="形状 23 拷贝" class="cls-3" d="M13.773,60.127s-0.328,4.01,1.663,4.524,1.982,0.4,2.993,0a2.355,2.355,0,0,0,1.663-2.111c0.02-.95,0-3.016,0-3.016L19.76,56.809l-4.324.9-0.665.6Z"/>
  <path id="形状_23_拷贝_2" data-name="形状 23 拷贝 2" class="cls-3" d="M68.773,61.127s-0.328,4.01,1.663,4.524,1.982,0.4,2.993,0a2.355,2.355,0,0,0,1.663-2.111c0.02-.95,0-3.016,0-3.016L74.76,57.809l-4.324.9-0.665.6Z"/>
  <path id="圆角矩形_3542_拷贝" data-name="圆角矩形 3542 拷贝" class="cls-3" d="M48.925,41.559L78.75,53.606l-0.134,6.771L48.4,76.953a5.945,5.945,0,0,1-5.149.04L11.635,59.409l0.115-5.8s3.794-.009,5.526-0.967c7.424-4.106,26.5-11.04,26.5-11.04A5.945,5.945,0,0,1,48.925,41.559Z"/>
  <path id="圆角矩形_3542" data-name="圆角矩形 3542" class="cls-4" d="M49.243,36.547l32.341,16.6c1.553,0.8,1.56,2.108.015,2.927L49.435,73.137a6.791,6.791,0,0,1-5.609.041l-32.341-16.6c-1.553-.8-1.56-2.108-0.015-2.927L43.634,36.588A6.791,6.791,0,0,1,49.243,36.547Z"/>
  <path id="形状_17" data-name="形状 17" class="cls-5" d="M33.633,43.092L68.158,61.9"/>
  <path id="形状_17_拷贝" data-name="形状 17 拷贝" class="cls-5" d="M26.477,47L61,66.1"/>
  <path id="形状_17_拷贝_2" data-name="形状 17 拷贝 2" class="cls-5" d="M39.477,39L74,58.133"/>
  <path id="形状_18" data-name="形状 18" class="cls-5" d="M17.049,50.762l34.8,18.49"/>
  <path id="形状_19" data-name="形状 19" class="cls-5" d="M23,61L59,43"/>
  <path id="形状_20" data-name="形状 20" class="cls-5" d="M39.965,69.611L73.934,51"/>
  <path id="形状_19_拷贝" data-name="形状 19 拷贝" class="cls-5" d="M17,57L52.424,38.753"/>
  <path id="形状_20_拷贝" data-name="形状 20 拷贝" class="cls-5" d="M32.71,65.5L66.135,46.657"/>
  <path id="形状_24_拷贝_8" data-name="形状 24 拷贝 8" class="cls-6" d="M30.729,39.772s-3.12,4.767-.971,8.558C32.635,53.4,30.729,60,30.729,60s6.243-6.089,3.883-11.67c-3.057-7.229-.746-9.711,1.941-13.226A25.22,25.22,0,0,0,30.729,39.772Z"/>
  <path id="形状_24_拷贝_7" data-name="形状 24 拷贝 7" class="cls-6" d="M43.953,33.668s-3.12,4.767-.971,8.558c2.877,5.073.971,11.67,0.971,11.67s6.243-6.089,3.883-11.67C44.778,35,47.089,32.515,49.776,29A25.214,25.214,0,0,0,43.953,33.668Z"/>
  <path id="形状_24_拷贝_6" data-name="形状 24 拷贝 6" class="cls-6" d="M57.176,38.994s-3.12,4.767-.971,8.558c2.877,5.073.971,11.67,0.971,11.67s6.243-6.089,3.883-11.67C58,40.323,60.313,37.841,63,34.326A25.216,25.216,0,0,0,57.176,38.994Z"/>
</svg>
