<svg id="组_2_拷贝" data-name="组 2 拷贝" xmlns="http://www.w3.org/2000/svg" width="63.999" height="63.999" viewBox="0 0 90 90">
  <metadata><?xpacket begin="﻿" id="W5M0MpCehiHzreSzNTczkc9d"?>
<x:xmpmeta xmlns:x="adobe:ns:meta/" x:xmptk="Adobe XMP Core 5.6-c138 79.159824, 2016/09/14-01:09:01        ">
   <rdf:RDF xmlns:rdf="http://www.w3.org/1999/02/22-rdf-syntax-ns#">
      <rdf:Description rdf:about=""/>
   </rdf:RDF>
</x:xmpmeta>
                                                                                                    
                                                                                                    
                                                                                                    
                                                                                                    
                                                                                                    
                                                                                                    
                                                                                                    
                                                                                                    
                                                                                                    
                                                                                                    
                                                                                                    
                                                                                                    
                                                                                                    
                                                                                                    
                                                                                                    
                                                                                                    
                                                                                                    
                                                                                                    
                                                                                                    
                                                                                                    
                           
<?xpacket end="w"?></metadata>
<defs>
    <style>
      .cls-1 {
        fill: #bcc1d5;
      }

      .cls-1, .cls-2, .cls-3, .cls-4, .cls-5, .cls-6 {
        fill-rule: evenodd;
      }

      .cls-2 {
        fill: #fff;
      }

      .cls-3 {
        fill: #242632;
      }

      .cls-3, .cls-4 {
        stroke: #bcc1d5;
      }

      .cls-3, .cls-4, .cls-5 {
        stroke-width: 1px;
      }

      .cls-4 {
        fill: #ff233d;
      }

      .cls-5 {
        fill: none;
        stroke: #fff;
        opacity: 0.22;
      }

      .cls-6 {
        fill: #fb9b00;
      }
    </style>
  </defs>
  <g id="组_1" data-name="组 1">
    <path id="形状_27_拷贝" data-name="形状 27 拷贝" class="cls-1" d="M6.015,31.335l25.611-8.006L35.984,24.8,23.989,46.991l-4.4-1.612Z"/>
    <path id="矩形_1_拷贝" data-name="矩形 1 拷贝" class="cls-1" d="M12.234,12.745L25.969,8l4.562,1.184L25.969,28.034,12.234,32.783V12.745Z"/>
    <path id="形状_27" data-name="形状 27" class="cls-2" d="M11.377,33.372l25.611-8.006L24.95,47.415Z"/>
    <path id="矩形_1" data-name="矩形 1" class="cls-2" d="M16.152,13.509L30.986,9V29.216L16.152,33.724V13.509Z"/>
  </g>
  <path id="形状_23" data-name="形状 23" class="cls-3" d="M41.773,79.127s-0.328,4.01,1.663,4.524,1.982,0.4,2.993,0a2.355,2.355,0,0,0,1.663-2.111c0.02-.95,0-3.016,0-3.016L47.76,75.809l-4.324.9-0.665.6Z"/>
  <path id="形状_23_拷贝" data-name="形状 23 拷贝" class="cls-3" d="M12.773,64.127s-0.328,4.01,1.663,4.524,1.982,0.4,2.993,0a2.355,2.355,0,0,0,1.663-2.111c0.02-.95,0-3.016,0-3.016L18.76,60.809l-4.324.9-0.665.6Z"/>
  <path id="形状_23_拷贝_2" data-name="形状 23 拷贝 2" class="cls-3" d="M67.773,65.127s-0.328,4.01,1.663,4.524,1.982,0.4,2.993,0a2.355,2.355,0,0,0,1.663-2.111c0.02-.95,0-3.016,0-3.016L73.76,61.809l-4.324.9-0.665.6Z"/>
  <path id="圆角矩形_3542_拷贝" data-name="圆角矩形 3542 拷贝" class="cls-3" d="M47.925,45.559L77.75,57.606l-0.134,6.771L47.4,80.953a5.945,5.945,0,0,1-5.149.04L10.635,63.409l0.115-5.8s3.794-.009,5.526-0.967c7.424-4.106,26.5-11.04,26.5-11.04A5.945,5.945,0,0,1,47.925,45.559Z"/>
  <path id="圆角矩形_3542" data-name="圆角矩形 3542" class="cls-4" d="M48.243,40.547l32.341,16.6c1.553,0.8,1.56,2.108.015,2.927L48.435,77.137a6.791,6.791,0,0,1-5.609.041l-32.341-16.6c-1.553-.8-1.56-2.108-0.015-2.927L42.634,40.588A6.791,6.791,0,0,1,48.243,40.547Z"/>
  <path id="形状_17" data-name="形状 17" class="cls-5" d="M32.633,47.092L67.158,65.9"/>
  <path id="形状_17_拷贝" data-name="形状 17 拷贝" class="cls-5" d="M25.477,51L60,70.1"/>
  <path id="形状_17_拷贝_2" data-name="形状 17 拷贝 2" class="cls-5" d="M38.477,43L73,62.133"/>
  <path id="形状_18" data-name="形状 18" class="cls-5" d="M16.049,54.762l34.8,18.49"/>
  <path id="形状_19" data-name="形状 19" class="cls-5" d="M22,65L58,47"/>
  <path id="形状_20" data-name="形状 20" class="cls-5" d="M38.965,73.611L72.934,55"/>
  <path id="形状_19_拷贝" data-name="形状 19 拷贝" class="cls-5" d="M16,61L51.424,42.753"/>
  <path id="形状_20_拷贝" data-name="形状 20 拷贝" class="cls-5" d="M31.71,69.5L65.135,50.657"/>
  <path id="形状_24" data-name="形状 24" class="cls-6" d="M30.729,39.772s-3.12,4.767-.971,8.558C32.635,53.4,30.729,60,30.729,60s6.243-6.089,3.883-11.67c-3.057-7.229-.746-9.711,1.941-13.226A25.22,25.22,0,0,0,30.729,39.772Z"/>
  <path id="形状_24_拷贝" data-name="形状 24 拷贝" class="cls-6" d="M43.953,33.668s-3.12,4.767-.971,8.558c2.877,5.073.971,11.67,0.971,11.67s6.243-6.089,3.883-11.67C44.778,35,47.089,32.515,49.776,29A25.214,25.214,0,0,0,43.953,33.668Z"/>
  <path id="形状_24_拷贝_2" data-name="形状 24 拷贝 2" class="cls-6" d="M57.176,38.994s-3.12,4.767-.971,8.558c2.877,5.073.971,11.67,0.971,11.67s6.243-6.089,3.883-11.67C58,40.323,60.313,37.841,63,34.326A25.216,25.216,0,0,0,57.176,38.994Z"/>
</svg>
