<?xml version="1.0" encoding="UTF-8" standalone="no"?>
<svg
   t="1740103554729"
   class="icon"
   viewBox="0 0 1000 1000"
   version="1.1"
   p-id="4615"
   data-darkreader-inline-fill=""
   width="64"
   height="64"
   id="svg1"
   sodipodi:docname="move_right - Copy.svg"
   inkscape:version="1.3.2 (091e20e, 2023-11-25, custom)"
   xmlns:inkscape="http://www.inkscape.org/namespaces/inkscape"
   xmlns:sodipodi="http://sodipodi.sourceforge.net/DTD/sodipodi-0.dtd"
   xmlns="http://www.w3.org/2000/svg"
   xmlns:svg="http://www.w3.org/2000/svg">
  <defs
     id="defs1" />
  <sodipodi:namedview
     id="namedview1"
     pagecolor="#ffffff"
     bordercolor="#000000"
     borderopacity="0.25"
     inkscape:showpageshadow="2"
     inkscape:pageopacity="0.0"
     inkscape:pagecheckerboard="0"
     inkscape:deskcolor="#d1d1d1"
     inkscape:zoom="12.703125"
     inkscape:cx="32"
     inkscape:cy="32"
     inkscape:window-width="1920"
     inkscape:window-height="1009"
     inkscape:window-x="1912"
     inkscape:window-y="-8"
     inkscape:window-maximized="1"
     inkscape:current-layer="svg1" />
  <path
     d="m 615.1345,815.785 257.492,-257.492 c 20.11,-20.11 20.11,-52.709 0,-72.819 L 615.1345,227.982 c -20.11,-20.11 -52.709,-20.11 -72.819,0 -20.11,20.11 -20.11,52.709 0,72.819 l 169.585,169.585 h -493.664 c -28.453,0 -51.499,23.046 -51.499,51.499 0,28.453 23.046,51.499 51.499,51.499 h 493.664 l -169.585,169.585 c -10.043,10.042 -15.089,23.226 -15.089,36.41 0,13.184 5.021,26.367 15.089,36.41 20.11,20.11 52.709,20.11 72.819,0 z"
     p-id="4616"
     fill="#d81e06"
     data-darkreader-inline-fill=""
     id="path1" />
</svg>
