<?xml version="1.0" standalone="no"?><!DOCTYPE svg PUBLIC "-//W3C//DTD SVG 1.1//EN" "http://www.w3.org/Graphics/SVG/1.1/DTD/svg11.dtd"><svg t="1720066872910" class="icon" viewBox="0 0 1024 1024" version="1.1" xmlns="http://www.w3.org/2000/svg" p-id="6586" data-darkreader-inline-fill="" width="64" height="64" xmlns:xlink="http://www.w3.org/1999/xlink"><path d="M168 504.192A343.264 343.264 0 0 1 268.608 268.8a342.24 342.24 0 0 1 243.296-100.8c46.496 0 91.52 9.088 133.792 27.008A341.504 341.504 0 0 1 755.008 268.8c9.92 9.92 19.2 20.384 27.776 31.392l-60.16 47.008a8 8 0 0 0 2.976 14.08l175.68 43.008a8 8 0 0 0 9.92-7.68L912 215.68c0-6.72-7.68-10.528-12.896-6.304l-56.416 44.096a418.848 418.848 0 0 0-330.88-161.504c-229.12 0-415.52 183.616-419.84 411.808a8 8 0 0 0 8.032 8.192H160a8 8 0 0 0 8-7.808zM924 512H864a8 8 0 0 0-8 7.808 341.632 341.632 0 0 1-26.88 125.984 342.144 342.144 0 0 1-73.728 109.408 342.432 342.432 0 0 1-243.296 100.8 342.24 342.24 0 0 1-243.2-100.8c-9.92-9.92-19.2-20.416-27.808-31.392l60.224-47.008a8 8 0 0 0-3.008-14.08l-175.68-43.008a8 8 0 0 0-9.92 7.68L112 808.384c0 6.72 7.68 10.528 12.896 6.304l56.416-44.096a419.04 419.04 0 0 0 330.88 161.408c229.216 0 415.52-183.68 419.84-411.808a8 8 0 0 0-8.032-8.192z" fill="#1296db" p-id="6587" data-darkreader-inline-fill="" style="--darkreader-inline-fill: #0e78af;"></path><path d="M688.64 378.336c-0.128-0.128-30.528 29.92-91.04 90.304l-42.464-42.432 90.464-90.464a121.28 121.28 0 0 0-148.416 18.368 122.24 122.24 0 0 0-31.68 117.888l0.896 3.36-141.76 141.696a8 8 0 0 0 0 11.296l70.72 70.72a8 8 0 0 0 11.296 0l141.632-141.664 3.36 0.896a122.144 122.144 0 0 0 118.016-31.68 122.048 122.048 0 0 0 18.976-148.288z" fill="#1296db" p-id="6588" data-darkreader-inline-fill="" style="--darkreader-inline-fill: #0e78af;"></path></svg>