<?xml version="1.0" standalone="no"?><!DOCTYPE svg PUBLIC "-//W3C//DTD SVG 1.1//EN" "http://www.w3.org/Graphics/SVG/1.1/DTD/svg11.dtd"><svg t="1695354131861" class="icon" viewBox="0 0 1024 1024" version="1.1" xmlns="http://www.w3.org/2000/svg" p-id="12597" data-darkreader-inline-fill="" xmlns:xlink="http://www.w3.org/1999/xlink" width="32" height="32"><path d="M512 64C264.8 64 64 264.8 64 512s200.8 448 448 448 448-200.8 448-448S759.2 64 512 64z m0 832c-212 0-384-172-384-384s172-384 384-384 384 172 384 384-172 384-384 384z" fill="#010D1E" p-id="12598" data-darkreader-inline-fill="" style="--darkreader-inline-fill: #010a18;"></path><path d="M411.2 411.2S252 768 256 768c7.2-7.2 356-156 356-156s148-348.8 155.2-356c7.2-7.2-356 155.2-356 155.2z m-24.8 226.4c13.6-29.6 56-137.6 70.4-170.4l95.2 95.2c-26.4 11.2-160.8 72.8-165.6 75.2z" fill="#2972E9" p-id="12599" data-darkreader-inline-fill="" style="--darkreader-inline-fill: #124eaf;"></path></svg>