<?xml version="1.0" standalone="no"?><!DOCTYPE svg PUBLIC "-//W3C//DTD SVG 1.1//EN" "http://www.w3.org/Graphics/SVG/1.1/DTD/svg11.dtd"><svg t="1692331750108" class="icon" viewBox="0 0 1024 1024" version="1.1" xmlns="http://www.w3.org/2000/svg" p-id="6799" data-darkreader-inline-fill="" xmlns:xlink="http://www.w3.org/1999/xlink" width="64" height="64"><path d="M13.059783 44.765444v929.527731C13.059783 1004.023552 42.29071 1025.460442 71.653072 1017.311533l401.714963-111.718924a14.142301 14.142301 0 0 0 10.383288-13.616565V127.095719a14.142301 14.142301 0 0 0-10.357002-13.629709L71.679359 1.747087C42.316997-6.414966 13.086069 15.04821 13.086069 44.752301z m134.312433 441.697194H320.221105a14.142301 14.142301 0 0 0 9.857553-24.275865l-66.255894-64.494678a14.142301 14.142301 0 0 1 0-20.267127l13.314267-12.959395a14.142301 14.142301 0 0 1 19.715104 0l138.6629 134.95646a14.142301 14.142301 0 0 1 0 20.267127L296.878422 654.619333a14.142301 14.142301 0 0 1-19.715104 0l-13.314267-12.959395a14.142301 14.142301 0 0 1 0-20.267127l66.216463-64.402674a14.142301 14.142301 0 0 0-9.857552-24.275865h-172.835746a14.142301 14.142301 0 0 1-14.142302-14.142301v-17.993319a14.142301 14.142301 0 0 1 14.142302-14.116014zM952.195341 6.597002l-401.701819 111.718924a14.142301 14.142301 0 0 0-10.357001 13.629709v764.946041a14.142301 14.142301 0 0 0 10.357001 13.629709l401.701819 111.718924c29.375505 8.201483 58.606433-13.301124 58.606433-42.992071V49.57593c0-29.717234-29.230928-51.18041-58.606433-43.005214z m-72.104707 530.888325H707.26803a14.142301 14.142301 0 0 0-9.857552 24.275865l66.295324 64.468391a14.142301 14.142301 0 0 1 0 20.267127l-13.32741 12.959395a14.142301 14.142301 0 0 1-19.715105 0l-138.715473-134.982746a14.142301 14.142301 0 0 1 0-20.267127l138.636613-134.930173a14.142301 14.142301 0 0 1 19.715104 0l13.406271 12.972538a14.142301 14.142301 0 0 1 0 20.267127l-66.216463 64.402674a14.142301 14.142301 0 0 0 9.857552 24.275865h172.743743a14.142301 14.142301 0 0 1 14.142301 14.142301v17.980175a14.142301 14.142301 0 0 1-14.142301 14.168588z m14.142301 0" p-id="6800" fill="#8a8a8a" data-darkreader-inline-fill="" style="--darkreader-inline-fill: #5a6265;"></path></svg>