<?xml version="1.0" standalone="no"?><!DOCTYPE svg PUBLIC "-//W3C//DTD SVG 1.1//EN" "http://www.w3.org/Graphics/SVG/1.1/DTD/svg11.dtd"><svg t="1692331884452" class="icon" viewBox="0 0 1030 1024" version="1.1" xmlns="http://www.w3.org/2000/svg" p-id="8102" data-darkreader-inline-fill="" xmlns:xlink="http://www.w3.org/1999/xlink" width="64.375" height="64"><path d="M156.9792 225.05472c-60.98944 115.712 122.2656 259.05152 279.74656 377.2416C592.55808 719.23712 594.42176 849.7152 128.7168 1024H0C381.48096 885.77024 574.22848 766.976 422.72768 642.00704 264.5504 511.51872 50.29888 364.66688 111.98464 218.2144 145.0496 139.7248 270.49984 66.99008 488.3456 0h35.328C318.96576 74.60864 196.73088 149.62688 156.9792 225.05472z m187.76064 53.77024c179.83488 252.71296 936.5504 383.63136 555.97056 660.50048A16583.41376 16583.41376 0 0 1 783.33952 1024H688.04608c57.57952-36.57728 124.4672-85.2992 200.66304-146.15552 266.6496-212.97152-435.23072-337.6128-589.4144-609.15712C248.6784 179.51744 324.32128 89.94816 526.21312 0h37.28384C359.85408 104.6528 286.91456 197.59104 344.73984 278.8352z" fill="#8a8a8a" p-id="8103" data-darkreader-inline-fill="" style="--darkreader-inline-fill: #5a6265;"></path><path d="M702.79168 686.08a20.48 20.48 0 0 1 20.48 20.48v40.96a20.48 20.48 0 1 1-40.96 0v-40.96a20.48 20.48 0 0 1 20.48-20.48zM784.71168 706.56a20.48 20.48 0 0 1 20.48 20.48v20.48a20.48 20.48 0 1 1-40.96 0v-20.48a20.48 20.48 0 0 1 20.48-20.48z" fill="#8a8a8a" p-id="8104" data-darkreader-inline-fill="" style="--darkreader-inline-fill: #9e9689;"></path></svg>