<?xml version="1.0" standalone="no"?><!DOCTYPE svg PUBLIC "-//W3C//DTD SVG 1.1//EN" "http://www.w3.org/Graphics/SVG/1.1/DTD/svg11.dtd"><svg t="1713836090019" class="icon" viewBox="0 0 1024 1024" version="1.1" xmlns="http://www.w3.org/2000/svg" p-id="2367" data-darkreader-inline-fill="" xmlns:xlink="http://www.w3.org/1999/xlink" width="200" height="200"><path d="M902.1 318.73L113.75 878.79c-9 6.4-11.12 18.88-4.72 27.89 3.9 5.49 10.06 8.42 16.32 8.42 4.01 0 8.05-1.2 11.57-3.7l788.35-560.06c9-6.4 11.12-18.88 4.72-27.89s-18.89-11.12-27.89-4.72zM110.32 584.35l121.44 161.54 32.62-23.17-122.27-162.64c-0.13-0.17-0.26-0.33-0.39-0.5-14.72-18.34-11.78-45.24 6.56-59.96 8.88-7.13 20.01-10.38 31.34-9.14 11.19 1.23 21.25 6.68 28.36 15.38l84.91 116.08a19.998 19.998 0 0 0 22.35 7.2 20.01 20.01 0 0 0 13.79-19.01V226.79c0-23.52 19.13-42.65 42.65-42.65s42.65 19.13 42.65 42.65v317.52c0 11.05 8.95 20 20 20s20-8.95 20-20V124.82c0-23.52 19.13-42.65 42.65-42.65s42.65 19.13 42.65 42.65V527.16l40-28.42V226.79c0-23.52 19.13-42.65 42.65-42.65s42.65 19.13 42.65 42.65v211.34l40-28.42v-15.94c0-23.52 19.13-42.65 42.65-42.65 10.07 0 19.32 3.51 26.63 9.37l33.24-23.61c-15.07-15.85-36.32-25.76-59.87-25.76-15.59 0-30.19 4.34-42.65 11.88v-96.21c0-45.57-37.08-82.65-82.65-82.65-15.59 0-30.19 4.34-42.65 11.88v-31.2c0-45.57-37.08-82.65-82.65-82.65-45.57 0-82.65 37.08-82.65 82.65v31.2c-12.46-7.54-27.06-11.88-42.65-11.88-45.57 0-82.65 37.08-82.65 82.65v322.13l-49.06-67.07c-0.18-0.24-0.36-0.48-0.55-0.71-13.82-17.22-33.52-28.02-55.46-30.42-21.94-2.4-43.51 3.89-60.73 17.7-35.44 28.46-41.2 80.4-12.91 115.93zM655.17 982.17c96.54 0 175.08-78.54 175.08-175.08V467.9l-40 28.42v310.77c0 74.48-60.6 135.08-135.08 135.08H429.05c-61.32 0-113.21-41.07-129.65-97.14l-34.04 24.18c25.12 65.96 89.01 112.96 163.68 112.96h226.13z" fill="#FF0000" p-id="2368" data-darkreader-inline-fill="" style="--darkreader-inline-fill: #cc0000;"></path></svg>