<svg id="组_2" data-name="组 2" xmlns="http://www.w3.org/2000/svg" width="63.999" height="63.999" viewBox="0 0 90 90">
  <metadata><?xpacket begin="﻿" id="W5M0MpCehiHzreSzNTczkc9d"?>
<x:xmpmeta xmlns:x="adobe:ns:meta/" x:xmptk="Adobe XMP Core 5.6-c138 79.159824, 2016/09/14-01:09:01        ">
   <rdf:RDF xmlns:rdf="http://www.w3.org/1999/02/22-rdf-syntax-ns#">
      <rdf:Description rdf:about=""/>
   </rdf:RDF>
</x:xmpmeta>
                                                                                                    
                                                                                                    
                                                                                                    
                                                                                                    
                                                                                                    
                                                                                                    
                                                                                                    
                                                                                                    
                                                                                                    
                                                                                                    
                                                                                                    
                                                                                                    
                                                                                                    
                                                                                                    
                                                                                                    
                                                                                                    
                                                                                                    
                                                                                                    
                                                                                                    
                                                                                                    
                           
<?xpacket end="w"?></metadata>
<defs>
    <style>
      .cls-1 {
        fill: #e2e8ff;
      }

      .cls-1, .cls-2, .cls-3 {
        fill-rule: evenodd;
      }

      .cls-2 {
        fill: #fff;
      }

      .cls-3 {
        fill: #00a0e9;
      }
    </style>
  </defs>
  <path id="圆角矩形_3538" data-name="圆角矩形 3538" class="cls-1" d="M11,53.154H28.673a1,1,0,0,1,1,1V76a1,1,0,0,1-1,1H11a1,1,0,0,1-1-1V54.154A1,1,0,0,1,11,53.154Z"/>
  <path id="圆角矩形_3538_拷贝_2" data-name="圆角矩形 3538 拷贝 2" class="cls-1" d="M12.183,66.642H73.344a1,1,0,0,1,1,1V76a1,1,0,0,1-1,1H12.183a1,1,0,0,1-1-1V67.642A1,1,0,0,1,12.183,66.642Z"/>
  <path id="圆角矩形_3538_拷贝" data-name="圆角矩形 3538 拷贝" class="cls-1" d="M62.327,53.154H80a1,1,0,0,1,1,1V76a1,1,0,0,1-1,1H62.327a1,1,0,0,1-1-1V54.154A1,1,0,0,1,62.327,53.154Z"/>
  <path id="形状_9" data-name="形状 9" class="cls-2" d="M38.4,19.769a3.622,3.622,0,0,1,3.55-2.385h9.467A3.066,3.066,0,0,1,52.6,19.769V37.654H38.4V19.769Z"/>
  <path id="形状_9_拷贝" data-name="形状 9 拷贝" class="cls-2" d="M38.4,60.378S39.127,61.5,41.95,61.5h9.467S52.6,61.11,52.6,60.378V51.962H38.4v8.416Z"/>
  <path id="圆角矩形_3539" data-name="圆角矩形 3539" class="cls-2" d="M36.117,15H54.883a6,6,0,0,1,6,6v7.115H30.117V21A6,6,0,0,1,36.117,15Z"/>
  <path id="圆角矩形_3541_拷贝" data-name="圆角矩形 3541 拷贝" class="cls-3" d="M39.9,40.039H51.1a1.5,1.5,0,0,1,1.5,1.5v0.577a1.5,1.5,0,0,1-1.5,1.5H39.9a1.5,1.5,0,0,1-1.5-1.5V41.539A1.5,1.5,0,0,1,39.9,40.039Z"/>
  <path id="圆角矩形_3541_拷贝_2" data-name="圆角矩形 3541 拷贝 2" class="cls-3" d="M39.9,46H51.1a1.5,1.5,0,0,1,1.5,1.5v0.577a1.5,1.5,0,0,1-1.5,1.5H39.9a1.5,1.5,0,0,1-1.5-1.5V47.5A1.5,1.5,0,0,1,39.9,46Z"/>
</svg>
